<svg xmlns="http://www.w3.org/2000/svg" width="18" height="18" viewBox="0 0 18 18" fill="none">
  <path d="M9 1V3M14.6569 3.34311L13.2427 4.75733M17 9H15M14.6569 14.6569L13.2427 13.2427M9 15V17M4.75733 13.2427L3.34311 14.6569M3 9H1M4.75733 4.75733L3.34311 3.34311M12.3333 9C12.3333 9.88406 11.9821 10.7319 11.357 11.357C10.7319 11.9821 9.88406 12.3333 9 12.3333C8.11595 12.3333 7.2681 11.9821 6.64298 11.357C6.01786 10.7319 5.66667 9.88406 5.66667 9C5.66667 8.11595 6.01786 7.2681 6.64298 6.64298C7.2681 6.01786 8.11595 5.66667 9 5.66667C9.88406 5.66667 10.7319 6.01786 11.357 6.64298C11.9821 7.2681 12.3333 8.11595 12.3333 9Z" stroke="white" stroke-width="1.5" stroke-linecap="round" stroke-linejoin="round"/>
</svg>